<svg width="800" height="600" xmlns="http://www.w3.org/2000/svg">
  <defs>
    <linearGradient id="bg4" x1="0%" y1="0%" x2="100%" y2="100%">
      <stop offset="0%" style="stop-color:#43e97b;stop-opacity:1" />
      <stop offset="100%" style="stop-color:#38f9d7;stop-opacity:1" />
    </linearGradient>
  </defs>
  <rect width="100%" height="100%" fill="url(#bg4)"/>
  <rect x="50" y="50" width="700" height="500" fill="rgba(255,255,255,0.1)" stroke="rgba(255,255,255,0.2)" stroke-width="2" rx="15"/>
  <text x="400" y="320" text-anchor="middle" fill="white" font-family="Arial, sans-serif" font-size="24" font-weight="bold">Order Management</text>
  <text x="400" y="350" text-anchor="middle" fill="rgba(255,255,255,0.8)" font-family="Arial, sans-serif" font-size="16">Real-time order tracking</text>
  
  <!-- Mock order list -->
  <rect x="100" y="120" width="600" height="50" fill="rgba(255,255,255,0.15)" rx="8"/>
  <rect x="100" y="180" width="600" height="50" fill="rgba(255,255,255,0.15)" rx="8"/>
  <rect x="100" y="240" width="600" height="50" fill="rgba(255,255,255,0.15)" rx="8"/>
  <rect x="100" y="300" width="600" height="50" fill="rgba(255,255,255,0.15)" rx="8"/>
  <rect x="100" y="360" width="600" height="50" fill="rgba(255,255,255,0.15)" rx="8"/>
  
  <!-- Status indicators -->
  <circle cx="650" cy="145" r="8" fill="#4ade80"/>
  <circle cx="650" cy="205" r="8" fill="#fbbf24"/>
  <circle cx="650" cy="265" r="8" fill="#3b82f6"/>
  <circle cx="650" cy="325" r="8" fill="#ef4444"/>
  <circle cx="650" cy="385" r="8" fill="#4ade80"/>
  
  <!-- Order details mockup -->
  <text x="120" y="140" fill="white" font-family="Arial, sans-serif" font-size="12">#12345</text>
  <text x="120" y="155" fill="rgba(255,255,255,0.7)" font-family="Arial, sans-serif" font-size="10">John Doe</text>
</svg>
