<svg xmlns="http://www.w3.org/2000/svg" width="800" height="600"><defs><linearGradient id="bg2" x1="0%" x2="100%" y1="0%" y2="100%"><stop offset="0%" style="stop-color:#f093fb;stop-opacity:1"/><stop offset="100%" style="stop-color:#f5576c;stop-opacity:1"/></linearGradient></defs><rect width="100%" height="100%" fill="url(#bg2)"/><rect width="700" height="500" x="50" y="50" fill="rgba(255,255,255,0.1)" stroke="rgba(255,255,255,0.2)" stroke-width="2" rx="15"/><text x="400" y="320" fill="#fff" font-family="Arial, sans-serif" font-size="24" font-weight="bold" text-anchor="middle">Product Catalog</text><text x="400" y="350" fill="rgba(255,255,255,0.8)" font-family="Arial, sans-serif" font-size="16" text-anchor="middle">Shopping interface design</text><rect width="120" height="80" x="120" y="150" fill="rgba(255,255,255,0.15)" rx="8"/><rect width="120" height="80" x="260" y="150" fill="rgba(255,255,255,0.15)" rx="8"/><rect width="120" height="80" x="400" y="150" fill="rgba(255,255,255,0.15)" rx="8"/><rect width="120" height="80" x="540" y="150" fill="rgba(255,255,255,0.15)" rx="8"/><rect width="120" height="80" x="120" y="250" fill="rgba(255,255,255,0.15)" rx="8"/><rect width="120" height="80" x="260" y="250" fill="rgba(255,255,255,0.15)" rx="8"/><rect width="120" height="80" x="400" y="250" fill="rgba(255,255,255,0.15)" rx="8"/><rect width="120" height="80" x="540" y="250" fill="rgba(255,255,255,0.15)" rx="8"/><rect width="400" height="30" x="200" y="100" fill="rgba(255,255,255,0.2)" rx="15"/></svg>