<svg xmlns="http://www.w3.org/2000/svg" width="800" height="600"><defs><linearGradient id="bg3" x1="0%" x2="100%" y1="0%" y2="100%"><stop offset="0%" style="stop-color:#4facfe;stop-opacity:1"/><stop offset="100%" style="stop-color:#00f2fe;stop-opacity:1"/></linearGradient></defs><rect width="100%" height="100%" fill="url(#bg3)"/><rect width="700" height="500" x="50" y="50" fill="rgba(255,255,255,0.1)" stroke="rgba(255,255,255,0.2)" stroke-width="2" rx="15"/><text x="400" y="320" fill="#fff" font-family="Arial, sans-serif" font-size="24" font-weight="bold" text-anchor="middle">Checkout Process</text><text x="400" y="350" fill="rgba(255,255,255,0.8)" font-family="Arial, sans-serif" font-size="16" text-anchor="middle">Secure payment flow</text><circle cx="200" cy="200" r="25" fill="rgba(255,255,255,0.3)"/><text x="200" y="205" fill="#fff" font-family="Arial, sans-serif" font-size="16" font-weight="bold" text-anchor="middle">1</text><line x1="225" x2="275" y1="200" y2="200" stroke="rgba(255,255,255,0.3)" stroke-width="3"/><circle cx="300" cy="200" r="25" fill="rgba(255,255,255,0.3)"/><text x="300" y="205" fill="#fff" font-family="Arial, sans-serif" font-size="16" font-weight="bold" text-anchor="middle">2</text><line x1="325" x2="375" y1="200" y2="200" stroke="rgba(255,255,255,0.3)" stroke-width="3"/><circle cx="400" cy="200" r="25" fill="rgba(255,255,255,0.3)"/><text x="400" y="205" fill="#fff" font-family="Arial, sans-serif" font-size="16" font-weight="bold" text-anchor="middle">3</text><line x1="425" x2="475" y1="200" y2="200" stroke="rgba(255,255,255,0.3)" stroke-width="3"/><circle cx="500" cy="200" r="25" fill="rgba(255,255,255,0.3)"/><text x="500" y="205" fill="#fff" font-family="Arial, sans-serif" font-size="16" font-weight="bold" text-anchor="middle">4</text><rect width="400" height="25" x="200" y="400" fill="rgba(255,255,255,0.15)" rx="5"/><rect width="400" height="25" x="200" y="440" fill="rgba(255,255,255,0.15)" rx="5"/><rect width="180" height="25" x="200" y="480" fill="rgba(255,255,255,0.15)" rx="5"/><rect width="180" height="25" x="420" y="480" fill="rgba(255,255,255,0.15)" rx="5"/></svg>