<svg width="800" height="600" xmlns="http://www.w3.org/2000/svg">
  <defs>
    <linearGradient id="bg2" x1="0%" y1="0%" x2="100%" y2="100%">
      <stop offset="0%" style="stop-color:#f093fb;stop-opacity:1" />
      <stop offset="100%" style="stop-color:#f5576c;stop-opacity:1" />
    </linearGradient>
  </defs>
  <rect width="100%" height="100%" fill="url(#bg2)"/>
  <rect x="50" y="50" width="700" height="500" fill="rgba(255,255,255,0.1)" stroke="rgba(255,255,255,0.2)" stroke-width="2" rx="15"/>
  <text x="400" y="320" text-anchor="middle" fill="white" font-family="Arial, sans-serif" font-size="24" font-weight="bold">Product Catalog</text>
  <text x="400" y="350" text-anchor="middle" fill="rgba(255,255,255,0.8)" font-family="Arial, sans-serif" font-size="16">Shopping interface design</text>
  
  <!-- Mock product grid -->
  <rect x="120" y="150" width="120" height="80" fill="rgba(255,255,255,0.15)" rx="8"/>
  <rect x="260" y="150" width="120" height="80" fill="rgba(255,255,255,0.15)" rx="8"/>
  <rect x="400" y="150" width="120" height="80" fill="rgba(255,255,255,0.15)" rx="8"/>
  <rect x="540" y="150" width="120" height="80" fill="rgba(255,255,255,0.15)" rx="8"/>
  
  <rect x="120" y="250" width="120" height="80" fill="rgba(255,255,255,0.15)" rx="8"/>
  <rect x="260" y="250" width="120" height="80" fill="rgba(255,255,255,0.15)" rx="8"/>
  <rect x="400" y="250" width="120" height="80" fill="rgba(255,255,255,0.15)" rx="8"/>
  <rect x="540" y="250" width="120" height="80" fill="rgba(255,255,255,0.15)" rx="8"/>
  
  <!-- Search bar -->
  <rect x="200" y="100" width="400" height="30" fill="rgba(255,255,255,0.2)" rx="15"/>
</svg>
