<svg xmlns="http://www.w3.org/2000/svg" width="800" height="600"><defs><linearGradient id="taskBg1" x1="0%" x2="100%" y1="0%" y2="100%"><stop offset="0%" style="stop-color:#8b5cf6;stop-opacity:1"/><stop offset="100%" style="stop-color:#3b82f6;stop-opacity:1"/></linearGradient></defs><rect width="100%" height="100%" fill="url(#taskBg1)"/><rect width="700" height="500" x="50" y="50" fill="rgba(255,255,255,0.1)" stroke="rgba(255,255,255,0.2)" stroke-width="2" rx="15"/><text x="400" y="320" fill="#fff" font-family="Arial, sans-serif" font-size="24" font-weight="bold" text-anchor="middle">Kanban Board View</text><text x="400" y="350" fill="rgba(255,255,255,0.8)" font-family="Arial, sans-serif" font-size="16" text-anchor="middle">Drag and drop task management</text><rect width="180" height="350" x="100" y="120" fill="rgba(255,255,255,0.1)" rx="10"/><rect width="180" height="350" x="310" y="120" fill="rgba(255,255,255,0.1)" rx="10"/><rect width="180" height="350" x="520" y="120" fill="rgba(255,255,255,0.1)" rx="10"/><text x="190" y="145" fill="#fff" font-family="Arial, sans-serif" font-size="14" font-weight="bold" text-anchor="middle">To Do</text><text x="400" y="145" fill="#fff" font-family="Arial, sans-serif" font-size="14" font-weight="bold" text-anchor="middle">In Progress</text><text x="610" y="145" fill="#fff" font-family="Arial, sans-serif" font-size="14" font-weight="bold" text-anchor="middle">Done</text><rect width="140" height="60" x="120" y="160" fill="rgba(255,255,255,0.2)" rx="8"/><rect width="140" height="60" x="120" y="230" fill="rgba(255,255,255,0.2)" rx="8"/><rect width="140" height="60" x="120" y="300" fill="rgba(255,255,255,0.2)" rx="8"/><rect width="140" height="60" x="330" y="160" fill="rgba(255,255,255,0.2)" rx="8"/><rect width="140" height="60" x="330" y="230" fill="rgba(255,255,255,0.2)" rx="8"/><rect width="140" height="60" x="540" y="160" fill="rgba(255,255,255,0.2)" rx="8"/><rect width="140" height="60" x="540" y="230" fill="rgba(255,255,255,0.2)" rx="8"/><rect width="140" height="60" x="540" y="300" fill="rgba(255,255,255,0.2)" rx="8"/><rect width="140" height="60" x="540" y="370" fill="rgba(255,255,255,0.2)" rx="8"/></svg>