<svg xmlns="http://www.w3.org/2000/svg" viewBox="0 0 1200 630"><defs><linearGradient id="bg" x1="0%" x2="100%" y1="0%" y2="100%"><stop offset="0%" style="stop-color:#0c4a6e"/><stop offset="100%" style="stop-color:#0f172a"/></linearGradient><linearGradient id="accent" x1="0%" x2="100%" y1="0%" y2="0%"><stop offset="0%" style="stop-color:#0ea5e9"/><stop offset="100%" style="stop-color:#3b82f6"/></linearGradient></defs><rect width="1200" height="630" fill="url(#bg)"/><g transform="translate(80, 140)"><text x="0" y="60" fill="#fff" font-family="Arial, sans-serif" font-size="56" font-weight="bold">Tamatar v1</text><text x="0" y="110" fill="#94a3b8" font-family="Arial, sans-serif" font-size="28" font-weight="normal">Next.js Authentication System</text><text x="0" y="150" fill="#cbd5e1" font-family="Arial, sans-serif" font-size="18">Enterprise-grade authentication with Next.js 15, Server Actions, and React 19</text><rect width="80" height="30" x="0" y="180" fill="rgba(14, 165, 233, 0.2)" stroke="#0ea5e9" rx="15"/><text x="40" y="200" fill="#0ea5e9" font-family="Arial, sans-serif" font-size="12" font-weight="bold" text-anchor="middle">Version 1</text><g transform="translate(0, 240)"><rect width="110" height="40" x="0" y="0" fill="rgba(14, 165, 233, 0.2)" stroke="#0ea5e9" rx="20"/><text x="55" y="26" fill="#0ea5e9" font-family="Arial, sans-serif" font-size="14" text-anchor="middle">Next.js 15</text><rect width="80" height="40" x="120" y="0" fill="rgba(59, 130, 246, 0.2)" stroke="#3b82f6" rx="20"/><text x="160" y="26" fill="#3b82f6" font-family="Arial, sans-serif" font-size="14" text-anchor="middle">React 19</text><rect width="120" height="40" x="210" y="0" fill="rgba(6, 182, 212, 0.2)" stroke="#06b6d4" rx="20"/><text x="270" y="26" fill="#06b6d4" font-family="Arial, sans-serif" font-size="14" text-anchor="middle">Server Actions</text><rect width="80" height="40" x="340" y="0" fill="rgba(34, 197, 94, 0.2)" stroke="#22c55e" rx="20"/><text x="380" y="26" fill="#22c55e" font-family="Arial, sans-serif" font-size="14" text-anchor="middle">Prisma</text><rect width="90" height="40" x="430" y="0" fill="rgba(139, 92, 246, 0.2)" stroke="#8b5cf6" rx="20"/><text x="475" y="26" fill="#8b5cf6" font-family="Arial, sans-serif" font-size="14" text-anchor="middle">shadcn/ui</text></g><g><text x="0" y="0" fill="#64748b" font-family="Arial, sans-serif" font-size="14" font-weight="bold" transform="translate(0, 320)">KEY FEATURES</text><text x="0" y="25" fill="#e2e8f0" font-family="Arial, sans-serif" font-size="14" transform="translate(0, 320)">• Server Actions for form handling</text><text x="0" y="45" fill="#e2e8f0" font-family="Arial, sans-serif" font-size="14" transform="translate(0, 320)">• Server Components optimization</text><text x="0" y="65" fill="#e2e8f0" font-family="Arial, sans-serif" font-size="14" transform="translate(0, 320)">• Modern UI with shadcn/ui</text><text x="250" y="25" fill="#e2e8f0" font-family="Arial, sans-serif" font-size="14" transform="translate(0, 320)">• JWT + Secure cookies</text><text x="250" y="45" fill="#e2e8f0" font-family="Arial, sans-serif" font-size="14" transform="translate(0, 320)">• Google OAuth integration</text><text x="250" y="65" fill="#e2e8f0" font-family="Arial, sans-serif" font-size="14" transform="translate(0, 320)">• Email verification system</text></g></g><g transform="translate(700, 100)"><polygon fill="rgba(14, 165, 233, 0.1)" stroke="rgba(14, 165, 233, 0.3)" stroke-width="2" points="100 50 150 80 150 120 100 150 50 120 50 80"/><rect width="80" height="100" x="200" y="200" fill="rgba(59, 130, 246, 0.1)" stroke="rgba(59, 130, 246, 0.3)" stroke-width="2" rx="8"/><rect width="60" height="8" x="210" y="220" fill="rgba(59, 130, 246, 0.3)" rx="4"/><rect width="40" height="8" x="210" y="240" fill="rgba(59, 130, 246, 0.3)" rx="4"/><rect width="50" height="8" x="210" y="260" fill="rgba(59, 130, 246, 0.3)" rx="4"/><circle cx="400" cy="400" r="40" fill="none" stroke="rgba(6, 182, 212, 0.3)" stroke-width="3"/><circle cx="400" cy="400" r="15" fill="rgba(6, 182, 212, 0.5)"/></g><g><text x="0" y="0" fill="#0ea5e9" font-family="Arial, sans-serif" font-size="12" font-weight="bold" transform="translate(950, 580)">FIRST ITERATION</text></g><rect width="1200" height="4" x="0" y="620" fill="url(#accent)"/></svg>