<svg xmlns="http://www.w3.org/2000/svg" viewBox="0 0 1200 630"><defs><linearGradient id="bg" x1="0%" x2="100%" y1="0%" y2="100%"><stop offset="0%" style="stop-color:#1e293b"/><stop offset="100%" style="stop-color:#0f172a"/></linearGradient><linearGradient id="accent" x1="0%" x2="100%" y1="0%" y2="0%"><stop offset="0%" style="stop-color:#3b82f6"/><stop offset="100%" style="stop-color:#8b5cf6"/></linearGradient></defs><rect width="1200" height="630" fill="url(#bg)"/><g><text x="0" y="80" fill="#fff" font-family="Arial, sans-serif" font-size="72" font-weight="bold" transform="translate(80, 160)">Tamatar</text><text x="0" y="130" fill="#94a3b8" font-family="Arial, sans-serif" font-size="32" font-weight="normal" transform="translate(80, 160)">Full-Stack Authentication System</text><text x="0" y="180" fill="#cbd5e1" font-family="Arial, sans-serif" font-size="20" transform="translate(80, 160)">Enterprise-grade authentication with TypeScript, GraphQL, and JWT</text><g transform="translate(80, 160) translate(0, 240)"><rect width="120" height="40" x="0" y="0" fill="rgba(59, 130, 246, 0.2)" stroke="#3b82f6" rx="20"/><text x="60" y="26" fill="#3b82f6" font-family="Arial, sans-serif" font-size="14" text-anchor="middle">TypeScript</text><rect width="100" height="40" x="130" y="0" fill="rgba(236, 72, 153, 0.2)" stroke="#ec4899" rx="20"/><text x="180" y="26" fill="#ec4899" font-family="Arial, sans-serif" font-size="14" text-anchor="middle">GraphQL</text><rect width="80" height="40" x="240" y="0" fill="rgba(6, 182, 212, 0.2)" stroke="#06b6d4" rx="20"/><text x="280" y="26" fill="#06b6d4" font-family="Arial, sans-serif" font-size="14" text-anchor="middle">React</text><rect width="80" height="40" x="330" y="0" fill="rgba(34, 197, 94, 0.2)" stroke="#22c55e" rx="20"/><text x="370" y="26" fill="#22c55e" font-family="Arial, sans-serif" font-size="14" text-anchor="middle">Prisma</text><rect width="60" height="40" x="420" y="0" fill="rgba(139, 92, 246, 0.2)" stroke="#8b5cf6" rx="20"/><text x="450" y="26" fill="#8b5cf6" font-family="Arial, sans-serif" font-size="14" text-anchor="middle">JWT</text></g></g><circle cx="950" cy="150" r="80" fill="rgba(59, 130, 246, 0.1)" stroke="rgba(59, 130, 246, 0.3)" stroke-width="2"/><circle cx="1050" cy="400" r="60" fill="rgba(139, 92, 246, 0.1)" stroke="rgba(139, 92, 246, 0.3)" stroke-width="2"/><rect width="1200" height="4" x="0" y="620" fill="url(#accent)"/></svg>